<svg width="49" height="27" viewBox="0 0 49 25" fill="none" xmlns="http://www.w3.org/2000/svg">
<g filter="url(#filter0_d)">
<path d="M16.5821 6.41667C16.5821 6.41667 16.8438 6.24365 17.3298 6.00427L19.4239 10.0269C19.4247 10.0269 19.4247 10.0269 19.4255 10.0269L19.4751 10.0247L19.7124 10.0356C21.5826 10.1337 23.0389 11.3375 23.0389 12.7957C23.0389 13.3278 22.8436 13.8308 22.4977 14.2589L22.6181 14.3534C22.8193 14.4216 23.0056 14.5251 23.1736 14.6595C23.2371 14.7154 23.2735 14.7529 23.3132 14.7965C23.3858 14.8764 23.4847 14.9928 23.5537 15.1453L23.6892 15.4315L23.78 15.4536H23.6994L24.0131 16.1193H24.3769L24.6905 15.4536H24.5768L24.7062 15.4213L24.8401 15.1371C24.9079 14.9927 25.0046 14.8764 25.0721 14.8017C25.1122 14.7582 25.1633 14.7028 25.2425 14.6461C25.4208 14.4999 25.64 14.3835 25.8937 14.3005C25.5254 13.8636 25.3176 13.3443 25.3176 12.795C25.3176 11.3247 26.8033 10.1089 28.6996 10.0268L28.7494 10.0246L28.8001 10.0272L30.7605 6.2638C31.204 6.52877 31.4394 6.71734 31.4394 6.71734L34.8621 2.65698C34.8621 2.65698 30.7174 -0.000612895 23.7418 1.0603e-07C17.5415 0.00145598 12.9363 2.95926 12.9363 2.95926L16.5821 6.41667ZM24.6268 9.05288C24.4332 9.07456 24.2186 9.09188 24.0247 9.09188C23.8302 9.09188 23.6142 9.06728 23.4194 9.03671C23.0886 8.98407 22.8281 8.77618 22.8281 8.60286C22.8281 8.42953 23.036 8.42424 23.3444 8.51029C23.5086 8.55589 23.7055 8.5909 23.9249 8.5909C24.1581 8.5909 24.3922 8.55175 24.5958 8.50187C24.9559 8.41344 25.2212 8.44164 25.2212 8.62868C25.2207 8.81518 24.958 9.01556 24.6268 9.05288ZM22.8281 7.27525C22.8281 7.09541 23.0154 6.94929 23.2475 6.94929C23.4791 6.94929 23.6669 7.09495 23.6669 7.27525C23.6669 7.45593 23.4792 7.60137 23.2475 7.60137C23.0154 7.60075 22.8281 7.45501 22.8281 7.27525ZM24.5402 7.27525C24.5402 7.09541 24.7279 6.94929 24.9596 6.94929C25.191 6.94929 25.3787 7.09495 25.3787 7.27525C25.3787 7.45593 25.191 7.60137 24.9596 7.60137C24.7279 7.60075 24.5402 7.45501 24.5402 7.27525ZM24.1116 4.53697C26.0728 4.54724 27.6708 4.9329 28.8728 5.37694C28.8636 5.39364 28.8505 5.40874 28.8422 5.42682L26.5641 9.98104L26.5649 10.0148H26.5151H26.1372H25.6431H24.8938C25.1644 9.94847 25.4152 9.8497 25.6431 9.72718V6.90952H21.7625C21.5385 7.22115 21.401 7.57478 21.401 7.95752C21.401 8.92537 22.2233 9.73683 23.3534 10.0148H21.767H21.7034H21.6591L21.6603 9.98104L19.3812 5.42682C19.3512 5.36054 19.3086 5.30169 19.2605 5.24568C20.5053 4.85826 22.1446 4.52694 24.1116 4.53697Z" fill="#37003C" fill-opacity="0.8"/>
<path d="M23.7419 0.5C27.1656 0.499699 29.8899 1.15168 31.7534 1.80046C32.6852 2.12487 33.4014 2.44837 33.8816 2.68882C33.9573 2.72672 34.0271 2.76255 34.091 2.79599L31.3527 6.04452C31.2572 5.9819 31.1451 5.91112 31.017 5.83457L30.5619 5.56271L30.3171 6.0328L28.4907 9.53888C28.0426 9.57516 27.6082 9.67116 27.2043 9.81889L29.2816 5.66605L29.2839 5.66261C29.2902 5.65304 29.3002 5.63731 29.3109 5.61777L29.5905 5.10907L29.046 4.90792C27.7965 4.44631 26.1407 4.04759 24.1142 4.03698H24.1141C22.089 4.02665 20.3986 4.36782 19.1119 4.76827L18.3858 4.99428L18.8811 5.57134C18.9131 5.60864 18.9227 5.62654 18.9254 5.63251L18.9295 5.64163L18.934 5.65059L20.9941 9.76721C20.5969 9.63847 20.1733 9.55909 19.7386 9.53627L19.7353 9.53612L19.7321 9.53597L17.7733 5.77339L17.5475 5.33968L17.1089 5.55572C16.9268 5.64539 16.7741 5.72656 16.6523 5.79422L13.7659 3.0569C13.8332 3.02026 13.9063 2.98114 13.985 2.93985C14.499 2.6702 15.2507 2.30883 16.1931 1.94695C18.0802 1.22242 20.7195 0.50071 23.7419 0.5ZM23.7419 0.5L23.7418 0M23.7419 0.5L23.7418 0M23.7418 0C29.3897 -0.000496243 33.1818 1.74163 34.4207 2.40481L23.7418 0ZM23.4704 9.54953L23.3534 10.5148H22.3888C23.0906 11.0885 23.5389 11.8791 23.5389 12.7957C23.5389 13.2532 23.4219 13.6878 23.2134 14.0803C23.3084 14.1367 23.3994 14.1999 23.4861 14.2693L23.495 14.2764L23.5036 14.2839C23.5834 14.3541 23.6329 14.405 23.6826 14.4595L23.6833 14.4603C23.7647 14.5498 23.9054 14.7115 24.0073 14.935L24.1411 15.2175L23.8518 15.3545L23.8483 15.3834L24.1517 15.2404L24.1949 15.3323L24.2382 15.2406L24.5046 15.3661L24.4995 15.324L24.2538 15.2083L24.3875 14.9244L24.3877 14.924L24.4729 14.9642L24.5853 14.9362L24.5896 14.9536H24.6905H24.9487C24.9923 14.8926 25.0363 14.8413 25.0721 14.8017L23.4704 9.54953ZM23.4704 9.54953C23.646 9.57346 23.8396 9.59188 24.0247 9.59188C24.2449 9.59188 24.4801 9.57244 24.6825 9.54977L24.6828 9.54973C24.714 9.54622 24.745 9.54172 24.7757 9.53627L24.8938 10.5148H25.6431H25.9669C25.2654 11.0894 24.8176 11.8798 24.8176 12.795C24.8176 13.2588 24.9377 13.6995 25.1519 14.0967C25.0771 14.1437 25.0055 14.1947 24.9374 14.2496L23.4704 9.54953ZM24.1036 7.58914C24.0002 7.82551 23.7839 7.97642 23.5609 8.04937C23.6703 8.07417 23.7929 8.0909 23.9249 8.0909C24.1053 8.0909 24.2975 8.06016 24.4766 8.01629L24.1036 7.58914ZM24.1036 7.58914C24.1891 7.78396 24.3514 7.92068 24.5307 8.00357C24.5125 8.00764 24.4946 8.01188 24.4768 8.01623L24.1036 7.58914ZM24.5768 15.3604V15.4V15.3604ZM22.0404 7.40952H22.3387C22.3842 7.68888 22.5704 7.87932 22.7874 7.98858C22.7011 8.01416 22.6041 8.06027 22.5177 8.14385C22.3771 8.27991 22.3281 8.45291 22.3281 8.60286C22.3281 8.78976 22.4017 8.94375 22.4929 9.06231C22.1093 8.75273 21.901 8.3524 21.901 7.95752C21.901 7.77218 21.9484 7.58889 22.0404 7.40952Z" stroke="#37003C" stroke-opacity="0.8"/>
<path d="M4.72134 24.1192C5.28892 24.277 5.91426 24.0491 6.11813 23.6086L8.39664 19.0541L8.13334 22.1654C8.08605 22.7163 8.37285 23.2045 8.84921 23.5346V14.8521H8.58136H8.51847H8.38993H8.32615C8.1673 14.9035 8.02464 14.9762 7.90834 15.0773C7.87349 15.0984 7.85434 15.1218 7.83242 15.1442C7.77526 15.2091 7.7256 15.2723 7.69193 15.3441L4.0651 23.0346C3.86035 23.4753 4.15475 23.9598 4.72134 24.1192Z" fill="#37003C" fill-opacity="0.8"/>
<path d="M5.67096 23.3848L5.66755 23.3917L5.66435 23.3986C5.63104 23.4706 5.54439 23.5603 5.3846 23.6186C5.22794 23.6758 5.03677 23.6878 4.85593 23.6376C4.67558 23.5867 4.57481 23.4946 4.5316 23.4233C4.49348 23.3604 4.49103 23.3052 4.5181 23.2463C4.51825 23.246 4.5184 23.2456 4.51855 23.2453L8.14417 15.5573L8.14463 15.5563C8.14705 15.5512 8.15665 15.5337 8.19688 15.487L8.20416 15.4826L8.23631 15.4547C8.26576 15.4291 8.30286 15.4041 8.34921 15.3807V18.9428L7.94948 18.8304L5.67096 23.3848Z" stroke="#37003C" stroke-opacity="0.8"/>
<path d="M13.3383 24.1192C13.9055 24.2771 14.5312 24.0492 14.7351 23.6086L15.2627 22.5541L15.7899 23.6086C15.9953 24.0492 16.6198 24.2771 17.1889 24.1192C17.7546 23.9592 18.0498 23.4754 17.8458 23.0347L17.467 22.2311V14.8522H17.1987H17.1351H17.0064H16.9429C16.7843 14.9035 16.6416 14.9762 16.5253 15.0773C16.4904 15.0985 16.4709 15.1218 16.4493 15.1443C16.3918 15.2091 16.3423 15.2723 16.3089 15.3441L15.2632 17.5606L14.2183 15.3441C14.1856 15.2711 14.1367 15.209 14.0815 15.1488C14.0571 15.1218 14.035 15.0972 14.0119 15.0767C13.8856 14.9751 13.7421 14.9028 13.5795 14.8707C13.5839 14.8517 13.5203 14.8517 13.5203 14.8517H13.3917H13.3292H13.0602V22.23L12.681 23.0335C12.4774 23.4754 12.7718 23.9599 13.3383 24.1192ZM17.0144 19.0554L16.8556 20.934L16.4768 20.1304L17.0144 19.0554ZM14.0505 20.1317L13.6709 20.9365L13.5113 19.0542L14.0505 20.1317Z" fill="#37003C" fill-opacity="0.8"/>
<path d="M13.7782 14.4042C13.9864 14.4611 14.1687 14.5611 14.3252 14.687L14.3349 14.6948L14.3441 14.703C14.3879 14.7419 14.4267 14.7849 14.4472 14.8077C14.449 14.8097 14.4507 14.8116 14.4522 14.8133L14.0815 15.1488L13.7782 14.4042ZM13.7782 14.4042C13.7083 14.3724 13.6469 14.3629 13.6283 14.36L13.6283 14.36C13.5972 14.3551 13.5707 14.3534 13.5554 14.3526C13.5469 14.3522 13.5395 14.3519 13.5338 14.3518L13.526 14.3517L13.5229 14.3517L13.5215 14.3517L13.5209 14.3517L13.5206 14.3517L13.5204 14.3517C13.5204 14.3517 13.5203 14.3517 13.5203 14.8517L13.7782 14.4042ZM14.288 23.3849L14.2845 23.3917L14.2813 23.3986C14.2481 23.4705 14.1614 23.5603 14.0015 23.6187C13.8447 23.6759 13.6536 23.6878 13.473 23.6377C13.2928 23.5868 13.1919 23.4947 13.1485 23.4231C13.1102 23.36 13.1074 23.304 13.1344 23.2443L13.3298 22.8303L13.3299 22.8316L14.1232 21.1498L14.5028 20.345L14.6064 20.1252L14.4977 19.9079L13.9584 18.8304L13.5602 18.9424V15.384C13.6019 15.4005 13.6428 15.4237 13.6838 15.4548C13.6902 15.4615 13.6973 15.4693 13.7104 15.4838L13.7109 15.4844L13.7109 15.4844L13.7129 15.4866C13.7329 15.5084 13.745 15.5233 13.7528 15.5341C13.7602 15.5444 13.762 15.5487 13.7619 15.5484L13.7618 15.5484L13.766 15.5573L14.8109 17.7738L15.263 18.7328L15.7154 17.7739L16.7611 15.5575L16.7611 15.5575L16.7623 15.5549C16.7643 15.5505 16.7735 15.5333 16.8134 15.4874L16.8209 15.4829L16.8533 15.4547C16.8829 15.429 16.9203 15.4038 16.967 15.3803V18.9441L16.5672 18.8317L16.0296 19.9068L15.9209 20.124L16.0245 20.3436L16.4033 21.1472L16.967 22.3429V22.3431L17.0147 22.4443L17.392 23.2447C17.3922 23.2451 17.3924 23.2455 17.3926 23.2459C17.4193 23.3044 17.4169 23.3596 17.3786 23.4228C17.3351 23.4944 17.234 23.5866 17.054 23.6378C16.6486 23.7496 16.3164 23.5546 16.2431 23.3974L16.2433 23.3973L16.2371 23.385L15.7099 22.3305L15.2629 21.4363L14.8156 22.3304L14.288 23.3849Z" stroke="#37003C" stroke-opacity="0.8"/>
<path d="M22.4446 13.1675C22.4446 12.0075 21.2717 11.0638 19.7955 11.0054C19.7704 10.9992 19.7473 11.0025 19.7223 11.0025C19.6986 11.0025 19.6742 11 19.6497 11C18.1723 11.0644 17 12.0075 17 13.1681C17 14.1357 17.8223 14.9467 18.9519 15.2252H18.4089V24.2487C18.6236 24.3018 18.8491 24.3381 19.0907 24.3381H19.3519V15.0746H20.127V24.338H20.3875C20.6292 24.338 20.8556 24.3017 21.0704 24.2486V15.2239H20.493C21.6223 14.9463 22.4446 14.1357 22.4446 13.1675ZM18.8652 12.1459C19.097 12.1459 19.2846 12.2915 19.2846 12.472C19.2846 12.6523 19.097 12.7981 18.8652 12.7981C18.6336 12.7981 18.4461 12.6523 18.4461 12.472C18.4461 12.2915 18.6344 12.1459 18.8652 12.1459ZM20.2458 14.2496C20.0519 14.2711 19.8371 14.2883 19.6432 14.2883C19.4487 14.2883 19.2327 14.2637 19.0383 14.233C18.7072 14.1807 18.4466 13.9728 18.4466 13.7994C18.4466 13.6262 18.6554 13.621 18.963 13.7067C19.1272 13.7525 19.3244 13.7878 19.5434 13.7878C19.777 13.7878 20.0108 13.7485 20.2147 13.6984C20.5742 13.6103 20.8401 13.6385 20.8401 13.8252C20.8401 14.0121 20.5758 14.2118 20.2458 14.2496ZM20.5774 12.7975C20.3458 12.7975 20.158 12.6517 20.158 12.4714C20.158 12.291 20.3457 12.1452 20.5774 12.1452C20.8092 12.1452 20.9968 12.291 20.9968 12.4714C20.9968 12.6516 20.8092 12.7975 20.5774 12.7975Z" fill="#37003C" fill-opacity="0.8"/>
<path d="M19.7223 11.5025C19.7227 11.5025 19.7232 11.5025 19.7236 11.5025L19.7258 11.503L19.7758 11.505C20.0707 11.5166 20.3416 11.5664 20.5846 11.6453C20.5822 11.6452 20.5798 11.6452 20.5774 11.6452C20.2737 11.6452 19.8741 11.8083 19.7212 12.1577C19.5681 11.8086 19.1687 11.6459 18.8652 11.6459C18.8606 11.6459 18.8559 11.6459 18.8512 11.646C19.0925 11.566 19.3617 11.5145 19.6549 11.5003C19.6566 11.5004 19.6586 11.5005 19.661 11.5006C19.6617 11.5006 19.6624 11.5007 19.6632 11.5007C19.674 11.5013 19.6974 11.5025 19.7223 11.5025ZM21.4968 12.4714C21.4968 12.3294 21.4631 12.2067 21.4066 12.1026C21.7524 12.4073 21.9446 12.7919 21.9446 13.1675C21.9446 13.7271 21.5266 14.297 20.7847 14.6044C20.8471 14.5731 20.9061 14.5374 20.9607 14.4978C21.124 14.379 21.3401 14.1518 21.3401 13.8252C21.3401 13.6451 21.2693 13.4705 21.1276 13.3428C21.0695 13.2904 21.0072 13.2528 20.9463 13.2256C21.2349 13.1133 21.4968 12.8671 21.4968 12.4714ZM19.5434 13.2878C19.4118 13.2878 19.289 13.2709 19.1793 13.2458C19.4022 13.1727 19.6181 13.0217 19.7214 12.7856C19.807 12.9806 19.9694 13.1175 20.149 13.2003C20.131 13.2043 20.1132 13.2085 20.0957 13.2128L20.0956 13.2128C19.9158 13.2569 19.724 13.2878 19.5434 13.2878ZM17.9466 13.7994C17.9466 14.0336 18.0621 14.2161 18.183 14.342C17.7414 14.0242 17.5 13.593 17.5 13.1681C17.5 12.793 17.6912 12.4092 18.0357 12.1042C17.9795 12.2081 17.9461 12.3304 17.9461 12.472C17.9461 12.8254 18.1548 13.0595 18.405 13.1855C18.3192 13.2111 18.2229 13.257 18.1369 13.3399C17.9961 13.4758 17.9466 13.6489 17.9466 13.7994Z" stroke="#37003C" stroke-opacity="0.8"/>
<path d="M24.0378 23.6086L24.2221 23.2392L24.407 23.608C24.6119 24.0486 25.2369 24.2765 25.8055 24.118C26.249 23.9933 26.5233 23.6678 26.524 23.3226C26.6003 23.3973 26.6776 23.4707 26.7689 23.5346V14.8522H26.5009H26.4373H26.3086H26.2453C26.0863 14.9035 25.9438 14.9762 25.8275 15.0773C25.7927 15.0985 25.7729 15.1218 25.7515 15.1443C25.6938 15.2091 25.6443 15.2723 25.6106 15.3441L24.2219 18.2871L22.8331 15.3441C22.8006 15.2711 22.7517 15.209 22.6967 15.1488C22.6718 15.1218 22.6502 15.0972 22.6269 15.0767C22.5009 14.9751 22.3573 14.9028 22.1947 14.8707C22.1992 14.8517 22.1355 14.8517 22.1355 14.8517H22.0069H21.944H21.675V23.5334C21.7666 23.4696 21.8449 23.3956 21.921 23.3216C21.921 23.668 22.1938 23.9946 22.6386 24.1193C23.2092 24.2771 23.8338 24.0492 24.0378 23.6086ZM26.3163 19.0554L26.0532 22.1654C26.0532 22.1666 26.0532 22.1666 26.0532 22.1678L25.4254 20.8366L26.3163 19.0554ZM22.3923 22.1707C22.3923 22.1688 22.3931 22.1666 22.3923 22.1641L22.129 19.0542L23.021 20.8376L22.3923 22.1707Z" fill="#37003C" fill-opacity="0.8"/>
<path d="M23.5904 23.3854L23.5872 23.3919L23.5841 23.3986C23.5122 23.5539 23.1811 23.7502 22.7726 23.6376C22.4826 23.556 22.421 23.3854 22.421 23.3216V22.2891L22.8446 22.3839L23.4733 21.0509L23.5769 20.8312L23.4682 20.6139L22.5762 18.8305L22.175 18.9433V15.3838C22.2169 15.4003 22.2579 15.4236 22.2987 15.4546L22.3101 15.4669L22.3275 15.4859C22.3476 15.508 22.3597 15.5229 22.3675 15.5337C22.3738 15.5424 22.3759 15.5467 22.3762 15.5473L22.3761 15.5474L22.3809 15.5575L23.7698 18.5005L24.222 19.4587L24.6741 18.5004L26.0628 15.5575L26.0633 15.5564C26.0658 15.5512 26.0755 15.5333 26.1156 15.4874L26.1233 15.4827L26.1555 15.4547C26.1851 15.429 26.2224 15.4039 26.2689 15.3805V18.9441L25.8691 18.8317L24.9782 20.6129L24.8696 20.8302L24.9732 21.0499L25.601 22.3811L26.026 22.2859L26.024 23.3216C26.0238 23.3833 25.9621 23.5544 25.6708 23.6365C25.2657 23.7492 24.9332 23.5539 24.8603 23.3971L24.8572 23.3905L24.854 23.384L24.6691 23.0152L24.2212 22.1213L23.7747 23.016L23.5904 23.3854ZM22.2947 22.2608L22.175 22.3772V22.2342V22.234L22.1753 22.234L22.2947 22.2608ZM26.2689 22.3739L26.1505 22.258L26.2689 22.2315V22.3739ZM22.8888 22.2298C22.8877 22.2387 22.8888 22.2296 22.8899 22.22C22.8893 22.2255 22.8889 22.229 22.8888 22.2298Z" stroke="#37003C" stroke-opacity="0.8"/>
<path d="M31.8099 24.1192C32.3776 24.2771 33.0027 24.0492 33.2072 23.6086L33.4584 23.1059L33.7105 23.6086C33.9162 24.0492 34.541 24.2771 35.1091 24.1192C35.5059 24.0074 35.7639 23.736 35.8161 23.4329C35.8972 23.4986 35.9744 23.5668 36.0682 23.6221V14.8516H35.671H35.6072H35.4786H35.4149C35.2558 14.9028 35.1138 14.9756 34.9971 15.0767C34.9622 15.0973 34.9425 15.1218 34.9216 15.1443C34.8637 15.2085 34.8138 15.2723 34.7807 15.343L33.4591 18.1444L32.1377 15.343C32.1049 15.2711 32.0566 15.2085 32.0012 15.1489C31.9762 15.121 31.9553 15.0973 31.9315 15.0762C31.8054 14.9739 31.6621 14.9023 31.4995 14.8707C31.5038 14.8513 31.4405 14.8513 31.4405 14.8513H31.3123H31.2498H30.9808V23.5328C31.0254 23.5019 31.0602 23.4625 31.1021 23.4285C31.1531 23.7339 31.4126 24.0074 31.8099 24.1192ZM35.4861 19.0554L35.2432 21.9261L34.664 20.6985L35.4861 19.0554ZM32.2548 20.6997L31.6752 21.9286L31.4324 19.0554L32.2548 20.6997Z" fill="#37003C" fill-opacity="0.8"/>
<path d="M31.5953 23.3462L31.5859 23.29L32.1274 22.1419L32.7071 20.913L32.8107 20.6933L32.702 20.476L31.8795 18.8317L31.4808 18.9438V15.3837C31.5222 15.3999 31.5624 15.4228 31.6025 15.4534L31.6121 15.4639L31.6287 15.4824L31.6287 15.4825L31.6349 15.4892C31.6719 15.5291 31.681 15.5467 31.6827 15.5504L31.6827 15.5505L31.6854 15.5563L33.0069 18.3577L33.4591 19.3163L33.9113 18.3577L35.2329 15.5563L35.2333 15.5555C35.2351 15.5516 35.2452 15.5328 35.2862 15.4866L35.2904 15.4841L35.3244 15.4547C35.3672 15.4176 35.4246 15.3824 35.5013 15.3516H35.5682V18.9805L35.0389 18.8317L34.2168 20.4748L34.1081 20.6921L34.2118 20.9119L34.791 22.1395L35.3335 23.2892L35.3234 23.348C35.311 23.4198 35.2292 23.5657 34.9744 23.6377C34.5702 23.7496 34.2372 23.5549 34.1635 23.397L34.1637 23.397L34.1574 23.3845L33.9054 22.8818L33.4577 21.9889L33.0112 22.8823L32.7599 23.3851L32.7567 23.3916L32.7536 23.3981C32.72 23.4705 32.633 23.5603 32.4732 23.6187C32.3166 23.6759 32.1255 23.6878 31.9447 23.6377C31.6899 23.5658 31.6074 23.4188 31.5953 23.3462Z" stroke="#37003C" stroke-opacity="0.8"/>
<path d="M41.1711 15.15C41.1462 15.1218 41.1248 15.0984 41.1015 15.0772C40.9749 14.9756 40.832 14.9035 40.6689 14.8718C40.6738 14.8521 40.61 14.8521 40.61 14.8521H40.4814H40.4185H40.2792V23.4458C40.6796 23.1193 40.9067 22.667 40.8644 22.164L40.6009 19.054L42.8793 23.6084C43.0843 24.049 43.7094 24.2769 44.278 24.1191C44.8441 23.9591 45.1393 23.4752 44.9355 23.0345L41.3071 15.344C41.2739 15.2722 41.2257 15.2096 41.1711 15.15Z" fill="#37003C" fill-opacity="0.8"/>
<path d="M40.7957 15.4803L40.7956 15.4804L40.8023 15.4877C40.8403 15.5292 40.8507 15.5482 40.8533 15.5539L40.8533 15.5539L40.8549 15.5573L44.4823 23.2457C44.5089 23.3042 44.5065 23.3593 44.4681 23.4225C44.4246 23.4941 44.3234 23.5864 44.1432 23.6376C43.738 23.7496 43.4056 23.5543 43.3327 23.3976L43.3297 23.3911L43.3265 23.3847L41.0481 18.8303L40.7792 18.9059V15.4618C40.7834 15.4664 40.7888 15.4724 40.7957 15.4803Z" stroke="#37003C" stroke-opacity="0.8"/>
<mask id="path-15-inside-1" fill="white">
<path d="M37.8172 9.3885C37.7931 9.361 37.7709 9.33694 37.7476 9.31571C37.6214 9.21403 37.4782 9.14193 37.3155 9.11013C37.3191 9.09373 37.2807 9.09189 37.2661 9.09189C37.4481 9.32828 37.6779 9.65317 37.89 10.0273L38.0692 10.035C38.1047 10.0367 38.1372 10.0459 38.1729 10.0482L37.9541 9.58267C37.9217 9.51133 37.8726 9.44789 37.8172 9.3885Z"/>
</mask>
<path d="M37.8172 9.3885C37.7931 9.361 37.7709 9.33694 37.7476 9.31571C37.6214 9.21403 37.4782 9.14193 37.3155 9.11013C37.3191 9.09373 37.2807 9.09189 37.2661 9.09189C37.4481 9.32828 37.6779 9.65317 37.89 10.0273L38.0692 10.035C38.1047 10.0367 38.1372 10.0459 38.1729 10.0482L37.9541 9.58267C37.9217 9.51133 37.8726 9.44789 37.8172 9.3885Z" fill="#37003C" fill-opacity="0.8"/>
<path d="M37.8172 9.3885L37.0663 10.0488L37.0759 10.0598L37.0859 10.0706L37.8172 9.3885ZM37.7476 9.31571L38.4211 8.57646L38.3986 8.55595L38.3748 8.53684L37.7476 9.31571ZM37.3155 9.11013L36.3382 8.8983L36.122 9.89578L37.1237 10.0916L37.3155 9.11013ZM37.2661 9.09189V8.09189H35.2337L36.4738 9.70205L37.2661 9.09189ZM37.89 10.0273L37.02 10.5204L37.2934 11.0027L37.8473 11.0264L37.89 10.0273ZM38.0692 10.035L38.1166 9.0361L38.1119 9.0359L38.0692 10.035ZM38.1729 10.0482L38.1106 11.0462L39.7963 11.1513L39.0779 9.62282L38.1729 10.0482ZM37.9541 9.58267L37.0434 9.99605L37.0491 10.008L37.9541 9.58267ZM38.5682 8.72817C38.5386 8.69454 38.4868 8.63637 38.4211 8.57646L37.0742 10.055C37.0634 10.0451 37.0569 10.0383 37.056 10.0373C37.0555 10.0368 37.056 10.0373 37.0578 10.0393C37.0596 10.0413 37.0623 10.0443 37.0663 10.0488L38.5682 8.72817ZM38.3748 8.53684C38.1377 8.3459 37.8481 8.1953 37.5073 8.1287L37.1237 10.0916C37.1215 10.0911 37.1189 10.0905 37.1163 10.0896C37.1137 10.0887 37.1117 10.0878 37.1105 10.0873C37.108 10.0861 37.1113 10.0872 37.1204 10.0946L38.3748 8.53684ZM38.2928 9.32195C38.3361 9.1224 38.3205 8.8995 38.2249 8.68977C38.1357 8.49412 38.0043 8.3696 37.9085 8.29826C37.7367 8.17035 37.5685 8.13099 37.5204 8.11998C37.3968 8.09175 37.2925 8.09189 37.2661 8.09189V10.0919C37.2543 10.0919 37.1764 10.0929 37.0748 10.0697C37.0377 10.0612 36.8793 10.0254 36.7141 9.90245C36.6217 9.8336 36.4929 9.71191 36.4051 9.51949C36.311 9.313 36.2958 9.09375 36.3382 8.8983L38.2928 9.32195ZM36.4738 9.70205C36.6355 9.91198 36.8369 10.1973 37.02 10.5204L38.76 9.53424C38.519 9.10901 38.2608 8.74457 38.0583 8.48173L36.4738 9.70205ZM37.8473 11.0264L38.0265 11.0341L38.1119 9.0359L37.9327 9.02824L37.8473 11.0264ZM38.0218 11.0339C37.9949 11.0326 37.9744 11.0302 37.9639 11.0288C37.9549 11.0276 37.9491 11.0265 37.9583 11.0281C37.963 11.0288 37.9847 11.0325 38.0077 11.0357C38.0329 11.0392 38.0684 11.0436 38.1106 11.0462L38.2351 9.05011C38.2595 9.05163 38.2776 9.05399 38.2855 9.0551C38.2914 9.05592 38.296 9.05673 38.2837 9.0547C38.2759 9.05342 38.253 9.0496 38.2269 9.04613C38.1992 9.04246 38.1613 9.03823 38.1166 9.03611L38.0218 11.0339ZM39.0779 9.62282L38.8591 9.15732L37.0491 10.008L37.2678 10.4735L39.0779 9.62282ZM38.8647 9.16933C38.7693 8.95916 38.6402 8.8047 38.5485 8.70645L37.0859 10.0706C37.0937 10.0789 37.091 10.0769 37.0834 10.0663C37.0754 10.0553 37.0597 10.0317 37.0435 9.99601L38.8647 9.16933Z" fill="#37003C" fill-opacity="0.8" mask="url(#path-15-inside-1)"/>
<mask id="path-17-inside-2" fill="white">
<path d="M32.186 9.09082H32.1255H32.0618C31.9032 9.14193 31.7607 9.21472 31.644 9.31579C31.6092 9.33694 31.5902 9.36108 31.5684 9.38299C31.5111 9.44736 31.4617 9.51134 31.4275 9.58275L30.9184 10.665C31.0098 10.7239 31.0961 10.7865 31.1811 10.8518C31.4324 10.1451 31.8787 9.4895 32.186 9.09082Z"/>
</mask>
<path d="M32.186 9.09082H32.1255H32.0618C31.9032 9.14193 31.7607 9.21472 31.644 9.31579C31.6092 9.33694 31.5902 9.36108 31.5684 9.38299C31.5111 9.44736 31.4617 9.51134 31.4275 9.58275L30.9184 10.665C31.0098 10.7239 31.0961 10.7865 31.1811 10.8518C31.4324 10.1451 31.8787 9.4895 32.186 9.09082Z" fill="#37003C" fill-opacity="0.8"/>
<path d="M32.186 9.09082L32.978 9.70135L34.2196 8.09082H32.186V9.09082ZM32.0618 9.09082V8.09082H31.9048L31.7552 8.13899L32.0618 9.09082ZM31.644 9.31579L32.1628 10.1707L32.2349 10.1269L32.2987 10.0717L31.644 9.31579ZM31.5684 9.38299L30.8598 8.67744L30.8402 8.69703L30.8219 8.71768L31.5684 9.38299ZM31.4275 9.58275L30.5254 9.15124L30.5227 9.15707L31.4275 9.58275ZM30.9184 10.665L30.0135 10.2393L29.6407 11.0318L30.3771 11.5059L30.9184 10.665ZM31.1811 10.8518L30.5716 11.6446L31.6624 12.4833L32.1233 11.1868L31.1811 10.8518ZM32.186 8.09082H32.1255V10.0908H32.186V8.09082ZM32.1255 8.09082H32.0618V10.0908H32.1255V8.09082ZM31.7552 8.13899C31.5018 8.22064 31.2311 8.35049 30.9894 8.55989L32.2987 10.0717C32.2903 10.079 32.3046 10.0632 32.3685 10.0427L31.7552 8.13899ZM31.1253 8.46089C31.0284 8.51968 30.9565 8.58162 30.9067 8.62978C30.8843 8.6514 30.8663 8.67034 30.8594 8.67757C30.8485 8.68905 30.8545 8.68272 30.8598 8.67744L32.2771 10.0885C32.2864 10.0791 32.2943 10.071 32.2995 10.0656C32.3034 10.0614 32.3096 10.0549 32.3096 10.0549C32.3135 10.0508 32.3066 10.0582 32.296 10.0684C32.2698 10.0938 32.2249 10.1331 32.1628 10.1707L31.1253 8.46089ZM30.8219 8.71768C30.7403 8.80914 30.6192 8.95512 30.5254 9.15125L32.3296 10.0143C32.316 10.0429 32.3038 10.0603 32.3003 10.0652C32.2973 10.0694 32.3001 10.065 32.315 10.0483L30.8219 8.71768ZM30.5227 9.15707L30.0135 10.2393L31.8233 11.0907L32.3324 10.0084L30.5227 9.15707ZM30.3771 11.5059C30.4381 11.5451 30.5009 11.5902 30.5716 11.6446L31.7907 10.0591C31.6913 9.98269 31.5815 9.90258 31.4597 9.82415L30.3771 11.5059ZM32.1233 11.1868C32.323 10.6253 32.6961 10.067 32.978 9.70135L31.3941 8.48029C31.0613 8.91197 30.5418 9.6649 30.2389 10.5168L32.1233 11.1868Z" fill="#37003C" fill-opacity="0.8" mask="url(#path-17-inside-2)"/>
<path d="M40.7493 12.7958C40.7493 11.6357 39.577 10.692 38.1005 10.6336C38.0751 10.6275 38.0526 10.6307 38.0277 10.6307C38.0035 10.6307 37.979 10.6283 37.9549 10.6283C36.4776 10.6926 35.3053 11.6357 35.3053 12.7964C35.3053 13.6281 35.9138 14.3418 36.8024 14.703H36.8432V14.7227C36.9757 14.7742 37.115 14.8187 37.2569 14.8535H36.8432V23.9089C37.0196 23.943 37.2028 23.9663 37.3958 23.9663H37.7864V14.7029H38.5615V23.9663H38.6924C38.9828 23.9663 39.2554 23.9205 39.505 23.844V14.8521H38.7981C39.9275 14.5746 40.7493 13.7639 40.7493 12.7958ZM37.3175 11.7741C37.5495 11.7741 37.7369 11.9198 37.7369 12.1002C37.7369 12.2805 37.5495 12.4264 37.3175 12.4264C37.086 12.4264 36.8986 12.2805 36.8986 12.1002C36.8986 11.9198 37.086 11.7741 37.3175 11.7741ZM38.6975 13.8779C38.5037 13.8993 38.2887 13.9166 38.0948 13.9166C37.9006 13.9166 37.6838 13.892 37.4895 13.8612C37.1587 13.809 36.8985 13.6011 36.8985 13.4277C36.8985 13.2544 37.1059 13.2492 37.4144 13.335C37.5786 13.3807 37.7756 13.416 37.9952 13.416C38.2282 13.416 38.4621 13.3767 38.6666 13.3267C39.0259 13.2386 39.2918 13.2668 39.2918 13.4534C39.2918 13.6404 39.0283 13.8401 38.6975 13.8779ZM39.0298 12.4257C38.798 12.4257 38.6105 12.2799 38.6105 12.0996C38.6105 11.9192 38.798 11.7735 39.0298 11.7735C39.2613 11.7735 39.4492 11.9192 39.4492 12.0996C39.4492 12.2798 39.2613 12.4257 39.0298 12.4257Z" fill="#37003C" fill-opacity="0.8"/>
<path d="M37.6313 12.8742C37.7408 12.8992 37.8634 12.916 37.9952 12.916C38.1751 12.916 38.3669 12.8853 38.5475 12.8411C38.5476 12.8411 38.5477 12.841 38.5478 12.841L38.6666 13.3267L37.6313 12.8742ZM37.6313 12.8742C37.8544 12.8011 38.0705 12.65 38.1738 12.4137C38.2593 12.6087 38.4216 12.7456 38.6012 12.8285L37.6313 12.8742ZM38.0277 11.1307C38.0281 11.1307 38.0285 11.1307 38.0289 11.1307L38.0312 11.1313L38.0807 11.1332C38.3851 11.1453 38.6638 11.1978 38.9126 11.2811C38.6303 11.317 38.3073 11.4801 38.1736 11.7862C38.0206 11.437 37.6213 11.2741 37.3175 11.2741C37.2326 11.2741 37.1401 11.2869 37.0477 11.3129C37.316 11.2108 37.622 11.145 37.96 11.1286C37.9617 11.1286 37.9637 11.1287 37.9661 11.1289L37.9681 11.129C37.9792 11.1295 38.0025 11.1307 38.0277 11.1307ZM39.9492 12.0996C39.9492 12.0546 39.9458 12.0115 39.9393 11.9703C40.1405 12.2253 40.2493 12.513 40.2493 12.7958C40.2493 13.2052 40.0258 13.6201 39.6154 13.9336C39.7135 13.8109 39.7918 13.6501 39.7918 13.4534C39.7918 13.2733 39.721 13.0987 39.5793 12.971C39.5213 12.9188 39.4591 12.8812 39.3982 12.854C39.6869 12.7417 39.9492 12.4956 39.9492 12.0996ZM36.769 14.0892C36.8245 14.131 36.885 14.1691 36.9494 14.203H36.9043C36.1924 13.8848 35.8053 13.3396 35.8053 12.7964C35.8053 12.2906 36.1529 11.7691 36.7552 11.4459C36.5529 11.5805 36.3986 11.7962 36.3986 12.1002C36.3986 12.4534 36.607 12.6875 36.8571 12.8136C36.7709 12.8392 36.674 12.8854 36.5878 12.969C36.4473 13.1051 36.3985 13.278 36.3985 13.4277C36.3985 13.7509 36.6185 13.9758 36.769 14.0892Z" stroke="#37003C" stroke-opacity="0.8"/>
<path d="M34.7467 4.87212C34.7217 4.86615 34.6995 4.86906 34.6739 4.86906C34.6497 4.86906 34.6271 4.86676 34.6015 4.86676C33.1238 4.93051 31.9515 5.87423 31.9515 7.03471C31.9515 8.00257 32.7736 8.81357 33.9035 9.09195H32.8701C32.5916 9.4294 31.8695 10.3684 31.6432 11.2942C32.0111 11.7266 32.2275 12.2412 32.2275 12.7964C32.2275 13.0202 32.186 13.2364 32.1203 13.447L32.0345 14.4545C32.1497 14.5123 32.2604 14.5785 32.3624 14.6603C32.4258 14.7165 32.463 14.7536 32.5025 14.7966C32.5749 14.8771 32.6734 14.9937 32.7423 15.1454L32.878 15.4322L32.9686 15.4543H32.8883L33.3318 16.3967L33.7762 15.4543H33.6626L33.7924 15.4227L33.926 15.1377C33.9933 14.9937 34.0902 14.8771 34.158 14.8024C34.1978 14.7588 34.2494 14.7035 34.3281 14.6473C34.5072 14.5003 34.726 14.3842 34.9789 14.3013C34.6109 13.8649 34.4037 13.3453 34.4037 12.7958C34.4037 11.4584 35.6377 10.3413 37.2867 10.0868C37.0212 9.64058 36.7372 9.27608 36.5845 9.09126H35.4462C36.5762 8.81349 37.398 8.00257 37.398 7.03471C37.3958 5.87423 36.2239 4.93044 34.7467 4.87212ZM33.8255 6.10357C34.0571 6.10357 34.2449 6.24892 34.2449 6.42953C34.2449 6.60929 34.0571 6.75565 33.8255 6.75565C33.5937 6.75565 33.4063 6.60998 33.4063 6.42953C33.4062 6.249 33.5937 6.10357 33.8255 6.10357ZM35.2044 8.20685C35.0109 8.22869 34.7964 8.246 34.6025 8.246C34.4082 8.246 34.1918 8.22126 33.9972 8.19076C33.6664 8.13835 33.4062 7.93023 33.4062 7.75714C33.4062 7.58396 33.6142 7.57829 33.9224 7.66442C34.0866 7.71017 34.2831 7.74488 34.5028 7.74488C34.7358 7.74488 34.9697 7.70526 35.1735 7.65538C35.5334 7.56695 35.7993 7.59538 35.7993 7.7825C35.7994 7.96878 35.5359 8.16953 35.2044 8.20685ZM35.5375 6.75503C35.3059 6.75503 35.1181 6.60929 35.1181 6.42907C35.1181 6.24892 35.3059 6.10295 35.5375 6.10295C35.7689 6.10295 35.9569 6.24831 35.9569 6.42907C35.9569 6.60937 35.7689 6.75503 35.5375 6.75503Z" fill="#37003C" fill-opacity="0.8"/>
<path d="M34.6749 5.36906C34.6745 5.36906 34.6742 5.36906 34.6739 5.36906C34.6494 5.36906 34.627 5.36796 34.6162 5.36743L34.6141 5.36732C34.6113 5.36719 34.6091 5.36709 34.6074 5.36701C33.2851 5.43024 32.4515 6.25161 32.4515 7.03471C32.4515 7.41233 32.6419 7.79482 32.994 8.09827C32.9417 8.00101 32.9062 7.88702 32.9062 7.75714C32.9062 7.60703 32.9553 7.43415 33.0957 7.29822C33.1819 7.21476 33.2788 7.16863 33.3649 7.143C33.1149 7.01701 32.9064 6.78308 32.9063 6.4298L34.6749 5.36906ZM34.6749 5.36906L34.678 5.3698L34.7269 5.37173C35.2396 5.39197 35.6796 5.5271 36.0268 5.73067C35.8685 5.64446 35.6906 5.60295 35.5375 5.60295C35.234 5.60295 34.8345 5.76604 34.6815 6.11515M34.6749 5.36906L34.6815 6.11515M36.1075 8.28128C36.2126 8.15636 36.2993 7.98926 36.2993 7.7825L36.1075 8.28128ZM36.1075 8.28128C36.6172 7.95899 36.8978 7.49356 36.898 7.03515C36.8969 6.57941 36.6146 6.11131 36.1191 5.78778C36.312 5.92295 36.4569 6.13439 36.4569 6.42907C36.4569 6.82496 36.1949 7.07079 35.9066 7.18303C35.9673 7.21032 36.0295 7.24799 36.0873 7.30023C36.2288 7.42807 36.2992 7.60255 36.2993 7.78223L36.1075 8.28128ZM34.6815 6.11515C34.5282 5.76585 34.1284 5.60357 33.8255 5.60357C33.4427 5.60357 32.9061 5.86251 32.9063 6.42953L34.6815 6.11515ZM34.6025 8.746C34.8227 8.746 35.0577 8.72657 35.2603 8.70371L35.2604 8.7037C35.2863 8.70078 35.312 8.6972 35.3374 8.69296L35.4462 9.59126H36.3439C36.3844 9.64378 36.4285 9.70215 36.4748 9.76559C35.0247 10.2292 33.9037 11.3551 33.9037 12.7958C33.9037 13.2595 34.0234 13.7005 34.2375 14.0978C34.1629 14.1448 34.0914 14.1957 34.0233 14.2507C33.9084 14.3349 33.8326 14.4173 33.789 14.4649L33.7877 14.4664C33.7081 14.5541 33.572 14.7144 33.4732 14.9258C33.4731 14.926 33.473 14.9261 33.473 14.9263L33.3397 15.2104L33.5874 15.3265L33.5923 15.3676L33.3453 15.2511L33.3407 15.2414L33.3327 15.2452L33.3239 15.241L33.3189 15.2517L33.037 15.3843L33.0405 15.3554L33.33 15.2184L33.1958 14.9348C33.0944 14.7131 32.9546 14.5516 32.8743 14.4622L32.8743 14.4622L32.8707 14.4583C32.8188 14.4018 32.7692 14.3527 32.694 14.2861L32.6848 14.2779L32.6752 14.2702C32.6369 14.2395 32.5983 14.2109 32.5594 14.184L32.6141 13.5416C32.6818 13.3108 32.7275 13.0617 32.7275 12.7964C32.7275 12.2009 32.5267 11.6539 32.1945 11.1886C32.4026 10.5732 32.8294 9.95583 33.1107 9.59195H33.9035L34.012 8.69852C34.1967 8.72482 34.4047 8.746 34.6025 8.746ZM34.6816 6.74327C34.7669 6.93774 34.9287 7.07436 35.1077 7.15723C35.0898 7.16125 35.0721 7.16542 35.0546 7.16972C34.8743 7.21386 34.6825 7.24488 34.5028 7.24488C34.3703 7.24488 34.2478 7.22825 34.1389 7.20355C34.3619 7.13043 34.5781 6.97926 34.6816 6.74327Z" stroke="#37003C" stroke-opacity="0.8"/>
<path d="M12.0966 8.88521C12.0966 9.8529 12.9181 10.6636 14.0483 10.9423H13.4137C13.987 11.4338 14.3382 12.0825 14.3382 12.7958C14.3382 13.3279 14.1429 13.8309 13.7974 14.2589L13.9174 14.3535C14.1188 14.4217 14.3049 14.5251 14.4729 14.6596C14.5367 14.7155 14.5732 14.753 14.6126 14.7966C14.6856 14.8764 14.7841 14.9928 14.8522 15.1454L14.9877 15.4316L15.0785 15.4537H14.9985L15.1667 15.8108L15.3358 15.4537H15.2211L15.3506 15.4214L15.4846 15.1371C15.5519 14.9928 15.6488 14.8764 15.716 14.8017C15.7566 14.7582 15.8079 14.7029 15.8867 14.6461C16.0657 14.4999 16.2845 14.3835 16.5377 14.3006C16.1694 13.8637 15.9621 13.3444 15.9621 12.7951C15.9621 12.0836 16.3156 11.435 16.8889 10.9422H15.5894C16.7193 10.6644 17.5413 9.85352 17.5413 8.88559C17.5413 7.72579 16.3688 6.782 14.8923 6.72353C14.8677 6.7174 14.845 6.72062 14.8195 6.72062C14.7953 6.72062 14.7716 6.71832 14.7464 6.71832C13.2695 6.78146 12.0966 7.72525 12.0966 8.88521ZM15.6744 8.3027C15.9061 8.3027 16.0938 8.44844 16.0938 8.62866C16.0938 8.80935 15.9061 8.95478 15.6744 8.95478C15.4424 8.95478 15.255 8.80942 15.255 8.62866C15.255 8.44836 15.4424 8.3027 15.6744 8.3027ZM13.9625 8.3027C14.1939 8.3027 14.3816 8.44844 14.3816 8.62866C14.3816 8.80935 14.1939 8.95478 13.9625 8.95478C13.7303 8.95478 13.5431 8.80942 13.5431 8.62866C13.5431 8.44836 13.7304 8.3027 13.9625 8.3027ZM14.0592 9.86317C14.2236 9.90861 14.4203 9.94363 14.6398 9.94363C14.8728 9.94363 15.1071 9.90462 15.3108 9.85459C15.6706 9.7657 15.9363 9.79444 15.9363 9.98156C15.9363 10.1687 15.6728 10.369 15.3417 10.4062C15.1481 10.4281 14.9333 10.4454 14.7397 10.4454C14.5452 10.4454 14.3286 10.4206 14.1342 10.3901C13.8035 10.3376 13.5432 10.1296 13.5432 9.95619C13.5431 9.78302 13.7516 9.77704 14.0592 9.86317Z" fill="#37003C" fill-opacity="0.8"/>
<path d="M14.1105 10.931C14.559 11.4482 14.8382 12.0874 14.8382 12.7958C14.8382 13.2533 14.7212 13.6879 14.5129 14.0803C14.6079 14.1368 14.6988 14.2 14.7854 14.2693L14.794 14.2762L14.8023 14.2835C14.8816 14.3529 14.9318 14.4041 14.9825 14.4602C15.0313 14.5136 15.0991 14.5908 15.1671 14.6901C15.2335 14.5934 15.2991 14.5176 15.3444 14.4673L15.3503 14.4607L15.3503 14.4608L15.3545 14.4563C15.3962 14.4116 15.4707 14.3316 15.5818 14.2497C15.6498 14.1949 15.7214 14.144 15.7962 14.0969C15.5819 13.6996 15.4621 13.2588 15.4621 12.7951C15.4621 12.3052 15.5968 11.8484 15.8285 11.4422H15.5894L15.5217 10.8837C15.4809 10.8919 15.4395 10.8984 15.3977 10.9031L14.1105 10.931ZM14.1105 10.931L14.1151 10.893M14.1105 10.931L14.1151 10.893M14.1151 10.893C14.308 10.9215 14.5296 10.9454 14.7397 10.9454C14.9596 10.9454 15.1949 10.9259 15.3975 10.9031L14.1151 10.893ZM17.0413 8.88559C17.0413 9.28515 16.8282 9.69009 16.436 10.001C16.4362 9.99453 16.4363 9.98806 16.4363 9.98156C16.4363 9.80193 16.366 9.62742 16.2246 9.49949C16.167 9.44739 16.1051 9.40975 16.0446 9.38244C16.3326 9.27005 16.5938 9.02432 16.5938 8.62866C16.5938 8.06225 16.0575 7.8027 15.6744 7.8027C15.3705 7.8027 14.9712 7.96557 14.8183 8.31475C14.6653 7.96558 14.2658 7.8027 13.9625 7.8027C13.5789 7.8027 13.0431 8.0623 13.0431 8.62866C13.0431 8.98225 13.2515 9.21614 13.5015 9.3421C13.4154 9.3678 13.3188 9.41395 13.2327 9.49727C13.1198 9.60657 13.0658 9.73981 13.0491 9.86605C12.7546 9.57738 12.5966 9.22929 12.5966 8.88521C12.5966 8.10272 13.4307 7.28119 14.7522 7.21857C14.7541 7.21865 14.7565 7.21876 14.7596 7.21891L14.7617 7.21901C14.7726 7.21954 14.795 7.22061 14.8192 7.22062L14.8211 7.22111L14.8725 7.22314C16.2012 7.27575 17.0413 8.1002 17.0413 8.88559ZM14.6398 9.44363C14.5083 9.44363 14.3862 9.42704 14.2768 9.40242C14.4993 9.32935 14.715 9.17861 14.8183 8.94279C14.9034 9.13721 15.0648 9.27379 15.2436 9.3567C15.2258 9.36072 15.2082 9.36489 15.1909 9.36918L15.3108 9.85459L15.1915 9.36903C15.0127 9.41295 14.8203 9.44363 14.6398 9.44363Z" stroke="#37003C" stroke-opacity="0.8"/>
<path d="M10.1227 12.5507C9.98561 12.5507 9.8699 12.4967 9.79339 12.4174L8.35504 13.4642C8.52377 13.8637 8.84325 14.2067 9.25612 14.4652L10.0295 13.9024C9.83663 13.813 9.70256 13.6751 9.70256 13.5523C9.70256 13.3788 9.91028 13.3736 10.2189 13.4596C10.3179 13.4875 10.4311 13.5075 10.5522 13.5222L11.8997 12.5408C11.8781 12.5429 11.857 12.5506 11.8339 12.5506C11.6025 12.5506 11.4147 12.4051 11.4147 12.2245C11.4147 12.0442 11.6024 11.8985 11.8339 11.8985C12.0655 11.8985 12.2533 12.0442 12.2533 12.2245C12.2533 12.2499 12.2416 12.2727 12.2347 12.2964L13.1926 11.5984C12.8989 11.2557 12.4819 10.9842 11.9906 10.8166L10.3926 11.9803C10.4814 12.0404 10.5413 12.126 10.5413 12.2246C10.5419 12.4051 10.3542 12.5507 10.1227 12.5507Z" fill="#37003C" fill-opacity="0.8"/>
<path d="M12.394 11.5616L12.3889 11.5654C12.2731 11.49 12.1423 11.4409 12.016 11.4166L12.0635 11.382C12.1822 11.4353 12.2927 11.4956 12.394 11.5616ZM10.9782 12.539C10.9843 12.5528 10.9907 12.5662 10.9974 12.5794L10.9324 12.6268C10.9494 12.5989 10.9648 12.5697 10.9782 12.539ZM9.01603 13.6016L9.2086 13.4614C9.20446 13.4923 9.20256 13.5228 9.20256 13.5523C9.20256 13.6606 9.22799 13.757 9.26526 13.8402L9.25557 13.8472C9.16436 13.7693 9.08436 13.687 9.01603 13.6016ZM11.0413 12.2245C11.0413 12.2242 11.0413 12.2239 11.0413 12.2237C11.0413 12.2239 11.0413 12.2242 11.0413 12.2245Z" stroke="#37003C" stroke-opacity="0.8"/>
<mask id="path-27-inside-3" fill="white">
<path d="M8.21619 12.7951C8.21619 12.8725 8.2303 12.9471 8.23998 13.023L11.4518 10.6842C11.3078 10.6602 11.1619 10.6392 11.011 10.6331C10.986 10.627 10.9636 10.6302 10.9379 10.6302C10.9142 10.6302 10.891 10.6276 10.8653 10.6276C9.38886 10.6915 8.21619 11.6351 8.21619 12.7951Z"/>
</mask>
<path d="M8.21619 12.7951C8.21619 12.8725 8.2303 12.9471 8.23998 13.023L11.4518 10.6842C11.3078 10.6602 11.1619 10.6392 11.011 10.6331C10.986 10.627 10.9636 10.6302 10.9379 10.6302C10.9142 10.6302 10.891 10.6276 10.8653 10.6276C9.38886 10.6915 8.21619 11.6351 8.21619 12.7951Z" fill="#37003C" fill-opacity="0.8"/>
<path d="M8.23998 13.023L7.24802 13.1495L7.46191 14.8266L8.82863 13.8314L8.23998 13.023ZM11.4518 10.6842L12.0404 11.4926L13.9658 10.0906L11.6166 9.6979L11.4518 10.6842ZM11.011 10.6331L10.7736 11.6045L10.8706 11.6282L10.9704 11.6323L11.011 10.6331ZM10.8653 10.6276V9.62759H10.8437L10.8221 9.62853L10.8653 10.6276ZM7.21619 12.7951C7.21619 12.8928 7.22507 12.9769 7.23222 13.0339C7.23577 13.0623 7.23958 13.089 7.24214 13.107C7.24507 13.1276 7.24668 13.139 7.24802 13.1495L9.23194 12.8965C9.22844 12.869 9.22466 12.8426 9.22222 12.8254C9.21941 12.8057 9.21788 12.7947 9.21669 12.7853C9.21436 12.7666 9.21619 12.7747 9.21619 12.7951H7.21619ZM8.82863 13.8314L12.0404 11.4926L10.8631 9.87583L7.65133 12.2146L8.82863 13.8314ZM11.6166 9.6979C11.4605 9.67181 11.2657 9.64263 11.0516 9.63393L10.9704 11.6323C11.0581 11.6358 11.1551 11.6485 11.2869 11.6705L11.6166 9.6979ZM11.2485 9.66171C11.1273 9.63209 11.0265 9.62918 10.9715 9.62936C10.9472 9.62944 10.9249 9.63029 10.9229 9.63036C10.9158 9.6306 10.9253 9.6302 10.9379 9.6302V11.6302C10.9633 11.6302 10.9852 11.6294 10.9904 11.6292C11.0006 11.6289 10.9902 11.6293 10.9779 11.6294C10.9467 11.6295 10.8697 11.628 10.7736 11.6045L11.2485 9.66171ZM10.9379 9.6302C10.95 9.6302 10.9586 9.63053 10.9615 9.63065C10.9633 9.63072 10.9643 9.63079 10.9567 9.63037C10.9513 9.63008 10.9383 9.62936 10.9238 9.62879C10.9085 9.62818 10.8885 9.62759 10.8653 9.62759V11.6276C10.855 11.6276 10.8475 11.6273 10.8445 11.6272C10.8423 11.6271 10.8415 11.6271 10.848 11.6274C10.8523 11.6277 10.8652 11.6284 10.8789 11.6289C10.8935 11.6295 10.914 11.6302 10.9379 11.6302V9.6302ZM10.8221 9.62853C9.0531 9.7051 7.21619 10.8865 7.21619 12.7951H9.21619C9.21619 12.3838 9.72462 11.6779 10.9086 11.6267L10.8221 9.62853Z" fill="#37003C" fill-opacity="0.8" mask="url(#path-27-inside-3)"/>
<path d="M13.66 12.7958C13.66 12.4948 13.5787 12.2096 13.4353 11.9492L11.3349 13.4778C11.3808 13.4689 11.4289 13.4617 11.4717 13.4513C11.8311 13.3632 12.0968 13.3914 12.0968 13.5781C12.0968 13.7648 11.8335 13.9659 11.5024 14.0028C11.3085 14.0245 11.094 14.0421 10.9001 14.0421C10.7986 14.0421 10.6924 14.0344 10.5856 14.0245L9.67701 14.6854C9.83369 14.7517 9.9957 14.81 10.1686 14.8528H9.62518V23.8766C9.83982 23.9294 10.0653 23.9663 10.3071 23.9663H10.5685V14.8529H11.3436V23.9664H11.604C11.8459 23.9664 12.0722 23.9296 12.2867 23.8767V14.8522H11.7092C12.8384 14.5746 13.66 13.7639 13.66 12.7958Z" fill="#37003C" fill-opacity="0.8"/>
<path d="M12.5062 13.2437L13.1597 12.7681C13.1599 12.7773 13.16 12.7866 13.16 12.7958C13.16 13.2181 12.9223 13.6461 12.4872 13.9629C12.5517 13.8558 12.5968 13.7273 12.5968 13.5781C12.5968 13.4605 12.5667 13.3452 12.5062 13.2437Z" stroke="#37003C" stroke-opacity="0.8"/>
<mask id="path-31-inside-4" fill="white">
<path d="M25.6422 6.1812C25.2274 5.95791 24.7332 5.81731 24.1962 5.79547V5.78934C24.1713 5.78934 24.1481 5.79194 24.1232 5.79194C24.0992 5.79194 24.0752 5.78934 24.0507 5.78934V5.79485C23.2744 5.82543 22.5885 6.10427 22.1064 6.5257H25.6415V6.1812H25.6422Z"/>
</mask>
<path d="M25.6422 6.1812C25.2274 5.95791 24.7332 5.81731 24.1962 5.79547V5.78934C24.1713 5.78934 24.1481 5.79194 24.1232 5.79194C24.0992 5.79194 24.0752 5.78934 24.0507 5.78934V5.79485C23.2744 5.82543 22.5885 6.10427 22.1064 6.5257H25.6415V6.1812H25.6422Z" fill="#37003C" fill-opacity="0.8"/>
<path d="M25.6422 6.1812V7.1812L26.1162 5.30064L25.6422 6.1812ZM24.1962 5.79547H23.1962V6.75563L24.1556 6.79464L24.1962 5.79547ZM24.1962 5.78934H25.1962V4.78934H24.1962V5.78934ZM24.0507 5.78934V4.78934H23.0507V5.78934H24.0507ZM24.0507 5.79485L24.09 6.79408L25.0507 6.75625V5.79485H24.0507ZM22.1064 6.5257L21.4483 5.77283L19.4432 7.5257H22.1064V6.5257ZM25.6415 6.5257V7.5257H26.6415V6.5257H25.6415ZM25.6415 6.1812V5.1812H24.6415V6.1812H25.6415ZM26.1162 5.30064C25.565 5.00398 24.9222 4.82417 24.2368 4.79629L24.1556 6.79464C24.5441 6.81044 24.8898 6.91185 25.1683 7.06175L26.1162 5.30064ZM25.1962 5.79547V5.78934H23.1962V5.79547H25.1962ZM24.1962 4.78934C24.1727 4.78934 24.1525 4.78995 24.1375 4.79055C24.1234 4.79112 24.1105 4.79184 24.1056 4.7921C24.0985 4.79249 24.0994 4.79243 24.1014 4.79235C24.1043 4.79223 24.1122 4.79194 24.1232 4.79194V6.79194C24.1467 6.79194 24.1669 6.79133 24.1819 6.79072C24.196 6.79016 24.2089 6.78944 24.2138 6.78918C24.2209 6.78879 24.2201 6.78885 24.218 6.78893C24.2152 6.78905 24.2072 6.78934 24.1962 6.78934V4.78934ZM24.1232 4.79194C24.135 4.79194 24.1432 4.79225 24.1458 4.79236C24.1476 4.79243 24.1483 4.79248 24.141 4.79209C24.1359 4.79182 24.1231 4.79111 24.1091 4.79055C24.0944 4.78996 24.0742 4.78934 24.0507 4.78934V6.78934C24.0394 6.78934 24.0314 6.78904 24.0288 6.78894C24.027 6.78886 24.0263 6.78881 24.0333 6.78919C24.0381 6.78945 24.0508 6.79015 24.0646 6.79071C24.0792 6.7913 24.0995 6.79194 24.1232 6.79194V4.79194ZM23.0507 5.78934V5.79485H25.0507V5.78934H23.0507ZM24.0113 4.79563C23.0244 4.8345 22.1153 5.18971 21.4483 5.77283L22.7646 7.27858C23.0617 7.01882 23.5244 6.81636 24.09 6.79408L24.0113 4.79563ZM22.1064 7.5257H25.6415V5.5257H22.1064V7.5257ZM26.6415 6.5257V6.1812H24.6415V6.5257H26.6415ZM25.6415 7.1812H25.6422V5.1812H25.6415V7.1812Z" fill="#37003C" fill-opacity="0.8" mask="url(#path-31-inside-4)"/>
<mask id="path-33-inside-5" fill="white">
<path d="M26.4837 6.90894H26.1363V9.38301C26.5739 9.00348 26.8457 8.50772 26.8457 7.95755C26.8457 7.57481 26.7076 7.22065 26.4837 6.90894Z"/>
</mask>
<path d="M26.4837 6.90894H26.1363V9.38301C26.5739 9.00348 26.8457 8.50772 26.8457 7.95755C26.8457 7.57481 26.7076 7.22065 26.4837 6.90894Z" fill="#37003C" fill-opacity="0.8"/>
<path d="M26.4837 6.90894L27.2959 6.32552L26.9966 5.90894H26.4837V6.90894ZM26.1363 6.90894V5.90894H25.1363V6.90894H26.1363ZM26.1363 9.38301H25.1363V11.5738L26.7914 10.1385L26.1363 9.38301ZM26.4837 5.90894H26.1363V7.90894H26.4837V5.90894ZM25.1363 6.90894V9.38301H27.1363V6.90894H25.1363ZM26.7914 10.1385C27.3971 9.61331 27.8457 8.85899 27.8457 7.95755H25.8457C25.8457 8.15645 25.7508 8.39365 25.4811 8.62751L26.7914 10.1385ZM27.8457 7.95755C27.8457 7.32411 27.6154 6.77026 27.2959 6.32552L25.6715 7.49235C25.7999 7.67104 25.8457 7.82551 25.8457 7.95755H27.8457Z" fill="#37003C" fill-opacity="0.8" mask="url(#path-33-inside-5)"/>
<mask id="path-35-inside-6" fill="white">
<path d="M26.1364 6.5239V6.52579H26.1389L26.1364 6.5239Z"/>
</mask>
<path d="M26.1364 6.5239V6.52579H26.1389L26.1364 6.5239Z" fill="#37003C" fill-opacity="0.8"/>
<path d="M26.1364 6.5239L26.7363 5.72382L25.1364 4.52421V6.5239H26.1364ZM26.1364 6.52579H25.1364V7.52579H26.1364V6.52579ZM26.1389 6.52579V7.52579H29.1395L26.7388 5.72571L26.1389 6.52579ZM25.1364 6.5239V6.52579H27.1364V6.5239H25.1364ZM26.1364 7.52579H26.1389V5.52579H26.1364V7.52579ZM26.7388 5.72571L26.7363 5.72382L25.5365 7.32397L25.539 7.32587L26.7388 5.72571Z" fill="#37003C" fill-opacity="0.8" mask="url(#path-35-inside-6)"/>
<path d="M26.1545 12.6517H31.5633C31.5238 12.1999 31.3098 11.7892 30.9667 11.456H26.7497C26.4074 11.7898 26.1926 12.1999 26.1545 12.6517ZM29.7141 11.7741C29.9464 11.7741 30.1335 11.9198 30.1335 12.1003C30.1335 12.2806 29.9463 12.4264 29.7141 12.4264C29.4826 12.4264 29.2947 12.2806 29.2947 12.1003C29.2947 11.9198 29.4826 11.7741 29.7141 11.7741ZM28.0022 11.7741C28.2344 11.7741 28.4215 11.9198 28.4215 12.1003C28.4215 12.2806 28.2343 12.4264 28.0022 12.4264C27.7703 12.4264 27.5828 12.2806 27.5828 12.1003C27.5828 11.9198 27.7711 11.7741 28.0022 11.7741Z" fill="#37003C" fill-opacity="0.8"/>
<path d="M27.0843 12.1517H26.8299C26.8694 12.0849 26.9154 12.0195 26.9678 11.956H27.0951C27.0871 12.0017 27.0828 12.0497 27.0828 12.1003C27.0828 12.1177 27.0833 12.1349 27.0843 12.1517ZM30.749 11.956C30.8014 12.0194 30.8474 12.0848 30.8871 12.1517H30.632C30.633 12.1349 30.6335 12.1177 30.6335 12.1003C30.6335 12.0497 30.6293 12.0017 30.6212 11.956H30.749Z" stroke="#37003C" stroke-opacity="0.8"/>
<mask id="path-39-inside-7" fill="white">
<path d="M31.5551 13.0353H26.1605C26.2036 13.3292 26.3188 13.6046 26.4988 13.851H28.1359C27.825 13.7886 27.5828 13.5936 27.5828 13.4278C27.5828 13.2546 27.7916 13.2494 28.0991 13.3351C28.2632 13.3809 28.4607 13.4162 28.6795 13.4162C28.9133 13.4162 29.147 13.3769 29.3509 13.3268C29.7102 13.2387 29.9768 13.2669 29.9768 13.4536C29.9768 13.6182 29.7679 13.7862 29.4953 13.8516H31.2179C31.3984 13.6046 31.5131 13.3292 31.5551 13.0353Z"/>
</mask>
<path d="M31.5551 13.0353H26.1605C26.2036 13.3292 26.3188 13.6046 26.4988 13.851H28.1359C27.825 13.7886 27.5828 13.5936 27.5828 13.4278C27.5828 13.2546 27.7916 13.2494 28.0991 13.3351C28.2632 13.3809 28.4607 13.4162 28.6795 13.4162C28.9133 13.4162 29.147 13.3769 29.3509 13.3268C29.7102 13.2387 29.9768 13.2669 29.9768 13.4536C29.9768 13.6182 29.7679 13.7862 29.4953 13.8516H31.2179C31.3984 13.6046 31.5131 13.3292 31.5551 13.0353Z" fill="#37003C" fill-opacity="0.8"/>
<path d="M31.5551 13.0353L32.5451 13.1766L32.708 12.0353H31.5551V13.0353ZM26.1605 13.0353V12.0353H25.003L25.1711 13.1805L26.1605 13.0353ZM26.4988 13.851L25.6913 14.4409L25.9909 14.851H26.4988V13.851ZM28.1359 13.851V14.851L28.3326 12.8705L28.1359 13.851ZM28.0991 13.3351L27.8304 14.2984L27.8307 14.2984L28.0991 13.3351ZM29.3509 13.3268L29.1127 12.3556L29.1126 12.3557L29.3509 13.3268ZM29.4953 13.8516L29.2622 12.8791L29.4953 14.8516V13.8516ZM31.2179 13.8516V14.8516H31.7257L32.0253 14.4416L31.2179 13.8516ZM31.5551 12.0353H26.1605V14.0353H31.5551V12.0353ZM25.1711 13.1805C25.2389 13.6428 25.4201 14.0696 25.6913 14.4409L27.3063 13.261C27.2176 13.1396 27.1683 13.0156 27.1499 12.8901L25.1711 13.1805ZM26.4988 14.851H28.1359V12.851H26.4988V14.851ZM28.3326 12.8705C28.3158 12.8671 28.3233 12.8628 28.3564 12.8886C28.3736 12.9019 28.4182 12.9395 28.4649 13.0116C28.5103 13.0817 28.5828 13.2251 28.5828 13.4278H26.5828C26.5828 13.9748 26.9428 14.323 27.1291 14.4678C27.3611 14.648 27.6451 14.7724 27.9392 14.8314L28.3326 12.8705ZM28.5828 13.4278C28.5828 13.5991 28.5229 13.8469 28.3144 14.048C28.1303 14.2256 27.9333 14.2654 27.8595 14.2754C27.7808 14.286 27.7363 14.2775 27.749 14.2793C27.7556 14.2802 27.7815 14.2847 27.8304 14.2984L28.3677 12.3719C28.1927 12.3231 27.8966 12.2522 27.5918 12.2933C27.4273 12.3156 27.159 12.3838 26.9261 12.6084C26.6688 12.8565 26.5828 13.1699 26.5828 13.4278H28.5828ZM27.8307 14.2984C28.0651 14.3637 28.3537 14.4162 28.6795 14.4162V12.4162C28.5677 12.4162 28.4614 12.398 28.3675 12.3718L27.8307 14.2984ZM28.6795 14.4162C29.0192 14.4162 29.3369 14.36 29.5893 14.298L29.1126 12.3557C28.9572 12.3938 28.8074 12.4162 28.6795 12.4162V14.4162ZM29.5891 14.2981C29.7186 14.2663 29.7169 14.2879 29.6276 14.2724C29.5793 14.2641 29.421 14.2301 29.2611 14.0864C29.0692 13.9139 28.9768 13.6748 28.9768 13.4536H30.9768C30.9768 13.1391 30.8512 12.8264 30.598 12.5989C30.3769 12.4001 30.1295 12.3296 29.9696 12.3019C29.6572 12.2477 29.3425 12.2992 29.1127 12.3556L29.5891 14.2981ZM28.9768 13.4536C28.9768 13.2789 29.0326 13.1449 29.0814 13.0632C29.1292 12.9833 29.1789 12.9373 29.2043 12.9164C29.2527 12.8768 29.2757 12.8759 29.2622 12.8791L29.7283 14.824C29.9874 14.7619 30.2513 14.6443 30.4723 14.4631C30.6693 14.3016 30.9768 13.963 30.9768 13.4536H28.9768ZM29.4953 14.8516H31.2179V12.8516H29.4953V14.8516ZM32.0253 14.4416C32.2976 14.069 32.4788 13.6409 32.5451 13.1766L30.5651 12.894C30.5475 13.0175 30.4992 13.1402 30.4105 13.2615L32.0253 14.4416Z" fill="#37003C" fill-opacity="0.8" mask="url(#path-39-inside-7)"/>
<mask id="path-41-inside-8" fill="white">
<path d="M26.8599 14.2331C27.1892 14.5157 27.6077 14.7343 28.0884 14.8521H27.5448V23.8761C27.76 23.9289 27.9855 23.9651 28.2268 23.9651H28.488V14.702H29.2631V23.9651H29.5243C29.7656 23.9651 29.9911 23.9289 30.2068 23.8761V14.8521H29.6295C30.1102 14.7336 30.5283 14.5156 30.8579 14.2331H26.8599Z"/>
</mask>
<path d="M26.8599 14.2331C27.1892 14.5157 27.6077 14.7343 28.0884 14.8521H27.5448V23.8761C27.76 23.9289 27.9855 23.9651 28.2268 23.9651H28.488V14.702H29.2631V23.9651H29.5243C29.7656 23.9651 29.9911 23.9289 30.2068 23.8761V14.8521H29.6295C30.1102 14.7336 30.5283 14.5156 30.8579 14.2331H26.8599Z" fill="#37003C" fill-opacity="0.8"/>
<path d="M26.8599 14.2331V13.2331H24.1594L26.2086 14.9919L26.8599 14.2331ZM28.0884 14.8521V15.8521L28.3265 13.8809L28.0884 14.8521ZM27.5448 14.8521V13.8521H26.5448V14.8521H27.5448ZM27.5448 23.8761H26.5448V24.6604L27.3066 24.8473L27.5448 23.8761ZM28.488 23.9651V24.9651H29.488V23.9651H28.488ZM28.488 14.702V13.702H27.488V14.702H28.488ZM29.2631 14.702H30.2631V13.702H29.2631V14.702ZM29.2631 23.9651H28.2631V24.9651H29.2631V23.9651ZM30.2068 23.8761L30.4446 24.8474L31.2068 24.6607V23.8761H30.2068ZM30.2068 14.8521H31.2068V13.8521H30.2068V14.8521ZM29.6295 14.8521L29.3901 13.8812L29.6295 15.8521V14.8521ZM30.8579 14.2331L31.5087 14.9923L33.5608 13.2331H30.8579V14.2331ZM26.2086 14.9919C26.6615 15.3806 27.2229 15.6696 27.8503 15.8234L28.3265 13.8809C27.9925 13.799 27.7169 13.6508 27.5112 13.4743L26.2086 14.9919ZM28.0884 13.8521H27.5448V15.8521H28.0884V13.8521ZM26.5448 14.8521V23.8761H28.5448V14.8521H26.5448ZM27.3066 24.8473C27.5762 24.9134 27.8841 24.9651 28.2268 24.9651V22.9651C28.0869 22.9651 27.9439 22.9443 27.783 22.9049L27.3066 24.8473ZM28.2268 24.9651H28.488V22.9651H28.2268V24.9651ZM29.488 23.9651V14.702H27.488V23.9651H29.488ZM28.488 15.702H29.2631V13.702H28.488V15.702ZM28.2631 14.702V23.9651H30.2631V14.702H28.2631ZM29.2631 24.9651H29.5243V22.9651H29.2631V24.9651ZM29.5243 24.9651C29.8669 24.9651 30.1749 24.9134 30.4446 24.8474L29.9689 22.9048C29.8074 22.9443 29.6642 22.9651 29.5243 22.9651V24.9651ZM31.2068 23.8761V14.8521H29.2068V23.8761H31.2068ZM30.2068 13.8521H29.6295V15.8521H30.2068V13.8521ZM29.8689 15.8231C30.4949 15.6687 31.0554 15.3809 31.5087 14.9923L30.207 13.4739C30.0012 13.6503 29.7256 13.7985 29.3901 13.8812L29.8689 15.8231ZM30.8579 13.2331H26.8599V15.2331H30.8579V13.2331Z" fill="#37003C" fill-opacity="0.8" mask="url(#path-41-inside-8)"/>
<mask id="path-43-inside-9" fill="white">
<path d="M28.8587 10.6301C28.8347 10.6301 28.8113 10.6275 28.7864 10.6275C28.2064 10.6527 27.6766 10.8173 27.2438 11.0728H30.471C30.0372 10.8184 29.5099 10.6566 28.9315 10.6337C28.9058 10.6275 28.8836 10.6301 28.8587 10.6301Z"/>
</mask>
<path d="M28.8587 10.6301C28.8347 10.6301 28.8113 10.6275 28.7864 10.6275C28.2064 10.6527 27.6766 10.8173 27.2438 11.0728H30.471C30.0372 10.8184 29.5099 10.6566 28.9315 10.6337C28.9058 10.6275 28.8836 10.6301 28.8587 10.6301Z" fill="#37003C" fill-opacity="0.8"/>
<path d="M28.7864 10.6275V9.62753H28.7647L28.743 9.62848L28.7864 10.6275ZM27.2438 11.0728L26.7355 10.2116L23.5822 12.0728H27.2438V11.0728ZM30.471 11.0728V12.0728H34.1523L30.9769 10.2102L30.471 11.0728ZM28.9315 10.6337L28.6965 11.6057L28.7929 11.629L28.8921 11.633L28.9315 10.6337ZM28.8587 9.63014C28.8704 9.63014 28.8788 9.63045 28.8816 9.63057C28.8836 9.63065 28.8845 9.63071 28.8772 9.63031C28.8721 9.63004 28.8592 9.62932 28.845 9.62875C28.83 9.62814 28.8098 9.62753 28.7864 9.62753V11.6275C28.7754 11.6275 28.7675 11.6272 28.7646 11.6271C28.7625 11.627 28.7617 11.627 28.7685 11.6274C28.7732 11.6276 28.786 11.6283 28.7999 11.6289C28.8147 11.6295 28.835 11.6301 28.8587 11.6301V9.63014ZM28.743 9.62848C28.0019 9.66068 27.3121 9.87128 26.7355 10.2116L27.7521 11.934C28.0411 11.7634 28.4108 11.6448 28.8298 11.6266L28.743 9.62848ZM27.2438 12.0728H30.471V10.0728H27.2438V12.0728ZM30.9769 10.2102C30.3989 9.87121 29.711 9.66373 28.971 9.63452L28.8921 11.633C29.3089 11.6494 29.6756 11.7656 29.965 11.9354L30.9769 10.2102ZM29.1665 9.66175C29.0554 9.63489 28.9623 9.63026 28.9053 9.62967C28.8797 9.6294 28.8577 9.63 28.8524 9.63013C28.8423 9.63038 28.85 9.63014 28.8587 9.63014V11.6301C28.8799 11.6301 28.8997 11.6296 28.9016 11.6295C28.9083 11.6294 28.8981 11.6297 28.8843 11.6296C28.8511 11.6292 28.7819 11.6264 28.6965 11.6057L29.1665 9.66175Z" fill="#37003C" fill-opacity="0.8" mask="url(#path-43-inside-9)"/>
</g>
<defs>
<filter id="filter0_d" x="0" y="0" width="49" height="32.3381" filterUnits="userSpaceOnUse" color-interpolation-filters="sRGB">
<feFlood flood-opacity="0" result="BackgroundImageFix"/>
<feColorMatrix in="SourceAlpha" type="matrix" values="0 0 0 0 0 0 0 0 0 0 0 0 0 0 0 0 0 0 127 0"/>
<feOffset dy="4"/>
<feGaussianBlur stdDeviation="2"/>
<feColorMatrix type="matrix" values="0 0 0 0 0 0 0 0 0 0 0 0 0 0 0 0 0 0 0.25 0"/>
<feBlend mode="normal" in2="BackgroundImageFix" result="effect1_dropShadow"/>
<feBlend mode="normal" in="SourceGraphic" in2="effect1_dropShadow" result="shape"/>
</filter>
</defs>
</svg>
